<?xml version="1.0" encoding="UTF-8" standalone="no"?>
<!DOCTYPE svg PUBLIC "-//W3C//DTD SVG 1.1//EN" "http://www.w3.org/Graphics/SVG/1.1/DTD/svg11.dtd">
<!-- Généré par Microsoft Visio, SVG Export oci_site.svg Page 1 -->
<svg xmlns="http://www.w3.org/2000/svg" xmlns:xlink="http://www.w3.org/1999/xlink" xmlns:ev="http://www.w3.org/2001/xml-events"
		xmlns:v="http://schemas.microsoft.com/visio/2003/SVGExtensions/" width="9.43369in" height="9.30411in"
		viewBox="0 0 679.226 669.896" xml:space="preserve" color-interpolation-filters="sRGB" class="st6">
	<v:documentProperties v:langID="1036" v:metric="true" v:viewMarkup="false"/>

	<style type="text/css">
	<![CDATA[
		.st1 {visibility:visible}
		.st2 {fill:#5b9bd5;fill-opacity:0.22;filter:url(#filter_2);stroke:none;stroke-linecap:round;stroke-linejoin:round}
		.st3 {fill:#7f7f7f;stroke:none;stroke-linecap:round;stroke-linejoin:round;stroke-width:0.75}
		.st4 {fill:#000000;stroke:none;stroke-linecap:round;stroke-linejoin:round;stroke-width:0.75}
		.st5 {fill:#ed7d31;stroke:none;stroke-linecap:round;stroke-linejoin:round;stroke-width:0.75}
		.st6 {fill:none;fill-rule:evenodd;font-size:12px;overflow:visible;stroke-linecap:square;stroke-miterlimit:3}
	]]>
	</style>

	<defs id="Filters">
		<filter id="filter_2">
			<feGaussianBlur stdDeviation="2"/>
		</filter>
	</defs>
	<g v:mID="0" v:index="1" v:groupContext="foregroundPage">
		<title>Page 1</title>
		<v:pageProperties v:drawingScale="0.0393701" v:pageScale="0.0393701" v:drawingUnits="24" v:shadowOffsetX="9"
				v:shadowOffsetY="-9"/>
		<g id="shape197-1" v:mID="197" v:groupContext="shape" transform="translate(215.686,-4.9728)">
			<title>path26952</title>
			<g id="shadow197-2" v:groupContext="shadow" v:shadowOffsetX="0.3456" v:shadowOffsetY="-1.9728" v:shadowType="1"
					transform="matrix(1,0,0,1,0.3456,1.9728)" class="st1">
				<path d="M199.27 563.46 A11.266 11.7848 -180 0 0 185.03 570.94 A11.266 11.7848 -180 0 0 192.18 585.84 C204.16 589.98
							 213.18 595.09 218.57 599.88 C223.95 604.66 225.32 608.33 225.32 610.97 C225.32 613.5 224.21 616.59 220
							 620.75 C215.78 624.92 208.68 629.49 199.4 633.37 C180.85 641.13 153.82 646.33 123.93 646.33 C94.03 646.33
							 67.01 641.13 48.45 633.37 C39.18 629.49 32.07 624.92 27.86 620.75 C23.64 616.59 22.53 613.5 22.53 610.97
							 C22.53 608.33 23.9 604.68 29.27 599.9 C34.63 595.12 43.62 590 55.56 585.86 A11.266 11.7848 -180 0 0
							 62.71 570.97 A11.266 11.7848 -180 0 0 48.47 563.51 C34.6 568.32 23.21 574.33 14.65 581.95 C6.1 589.57
							 0 599.58 0 610.97 C0 621.46 5.2 630.77 12.39 637.88 C19.58 644.99 28.96 650.61 40.07 655.26 C62.29 664.56
							 91.6 669.9 123.93 669.9 C156.25 669.9 185.56 664.56 207.78 655.26 C218.89 650.61 228.28 644.99 235.46
							 637.88 C242.65 630.77 247.85 621.46 247.85 610.97 C247.85 599.56 241.73 589.55 233.15 581.92 C224.57
							 574.3 213.17 568.28 199.27 563.46 Z" class="st2"/>
			</g>
			<path d="M199.27 563.46 A11.266 11.7848 -180 0 0 185.03 570.94 A11.266 11.7848 -180 0 0 192.18 585.84 C204.16 589.98
						 213.18 595.09 218.57 599.88 C223.95 604.66 225.32 608.33 225.32 610.97 C225.32 613.5 224.21 616.59 220 620.75
						 C215.78 624.92 208.68 629.49 199.4 633.37 C180.85 641.13 153.82 646.33 123.93 646.33 C94.03 646.33 67.01
						 641.13 48.45 633.37 C39.18 629.49 32.07 624.92 27.86 620.75 C23.64 616.59 22.53 613.5 22.53 610.97 C22.53
						 608.33 23.9 604.68 29.27 599.9 C34.63 595.12 43.62 590 55.56 585.86 A11.266 11.7848 -180 0 0 62.71 570.97
						 A11.266 11.7848 -180 0 0 48.47 563.51 C34.6 568.32 23.21 574.33 14.65 581.95 C6.1 589.57 0 599.58 0 610.97
						 C0 621.46 5.2 630.77 12.39 637.88 C19.58 644.99 28.96 650.61 40.07 655.26 C62.29 664.56 91.6 669.9 123.93
						 669.9 C156.25 669.9 185.56 664.56 207.78 655.26 C218.89 650.61 228.28 644.99 235.46 637.88 C242.65 630.77
						 247.85 621.46 247.85 610.97 C247.85 599.56 241.73 589.55 233.15 581.92 C224.57 574.3 213.17 568.28 199.27
						 563.46 Z" class="st3"/>
		</g>
		<g id="shape201-6" v:mID="201" v:groupContext="shape" transform="translate(233.332,-49.7384)">
			<title>path19112</title>
			<g id="shadow201-7" v:groupContext="shadow" v:shadowOffsetX="0.3456" v:shadowOffsetY="-1.9728" v:shadowType="1"
					transform="matrix(1,0,0,1,0.3456,1.9728)" class="st1">
				<path d="M106.28 169.85 C47.83 169.85 0 217.72 0 276.17 C0 327.04 36.25 369.86 84.17 380.12 L84.17 647.78 A22.1111
							 22.1111 -180 0 0 106.28 669.9 A22.1111 22.1111 -180 0 0 128.39 647.78 L128.39 380.12 C176.32 369.86
							 212.56 327.04 212.56 276.17 C212.56 217.72 164.73 169.85 106.28 169.85 ZM106.28 214.07 C140.83 214.07
							 168.34 241.62 168.34 276.17 C168.34 310.72 140.83 338.23 106.28 338.23 C71.73 338.23 44.22 310.72 44.22
							 276.17 C44.22 241.62 71.73 214.07 106.28 214.07 Z" class="st2"/>
			</g>
			<path d="M106.28 169.85 C47.83 169.85 0 217.72 0 276.17 C0 327.04 36.25 369.86 84.17 380.12 L84.17 647.78 A22.1111 22.1111
						 -180 0 0 106.28 669.9 A22.1111 22.1111 -180 0 0 128.39 647.78 L128.39 380.12 C176.32 369.86 212.56 327.04
						 212.56 276.17 C212.56 217.72 164.73 169.85 106.28 169.85 ZM106.28 214.07 C140.83 214.07 168.34 241.62 168.34
						 276.17 C168.34 310.72 140.83 338.23 106.28 338.23 C71.73 338.23 44.22 310.72 44.22 276.17 C44.22 241.62
						 71.73 214.07 106.28 214.07 Z" class="st4"/>
		</g>
		<g id="shape202-11" v:mID="202" v:groupContext="shape" transform="translate(121.384,-296.29)">
			<title>circle19116</title>
			<g id="shadow202-12" v:groupContext="shadow" v:shadowOffsetX="0.3456" v:shadowOffsetY="-1.9728" v:shadowType="1"
					transform="matrix(1,0,0,1,0.3456,1.9728)" class="st1">
				<path d="M77.53 381.98 C0 459.51 0 585.89 77.53 663.42 A22.1113 22.1113 -180 0 0 108.8 663.42 A22.1113 22.1113 -180
							 0 0 108.8 632.15 C48.17 571.53 48.17 473.88 108.8 413.25 A22.1113 22.1113 -180 0 0 108.8 381.98 A22.1113
							 22.1113 -180 0 0 77.53 381.98 ZM327.66 381.98 A22.1113 22.1113 -180 0 0 327.66 413.25 C388.29 473.88
							 388.29 571.53 327.66 632.15 A22.1113 22.1113 -180 0 0 327.66 663.42 A22.1113 22.1113 -180 0 0 358.93
							 663.42 C436.46 585.89 436.46 459.51 358.93 381.98 A22.1113 22.1113 -180 0 0 327.66 381.98 Z"
						class="st2"/>
			</g>
			<path d="M77.53 381.98 C0 459.51 0 585.89 77.53 663.42 A22.1113 22.1113 -180 0 0 108.8 663.42 A22.1113 22.1113 -180 0
						 0 108.8 632.15 C48.17 571.53 48.17 473.88 108.8 413.25 A22.1113 22.1113 -180 0 0 108.8 381.98 A22.1113 22.1113
						 -180 0 0 77.53 381.98 ZM327.66 381.98 A22.1113 22.1113 -180 0 0 327.66 413.25 C388.29 473.88 388.29 571.53
						 327.66 632.15 A22.1113 22.1113 -180 0 0 327.66 663.42 A22.1113 22.1113 -180 0 0 358.93 663.42 C436.46 585.89
						 436.46 459.51 358.93 381.98 A22.1113 22.1113 -180 0 0 327.66 381.98 Z" class="st5"/>
		</g>
		<g id="shape203-16" v:mID="203" v:groupContext="shape" transform="translate(0,-218.102)">
			<title>circle19118</title>
			<g id="shadow203-17" v:groupContext="shadow" v:shadowOffsetX="0.3456" v:shadowOffsetY="-1.9728" v:shadowType="1"
					transform="matrix(1,0,0,1,0.3456,1.9728)" class="st1">
				<path d="M542.89 219.15 A22.1111 22.1111 -180 0 0 527.21 225.62 A22.1111 22.1111 -180 0 0 527.21 256.89 C631.02 360.7
							 631.02 528.33 527.21 632.13 A22.1111 22.1111 -180 0 0 527.21 663.4 A22.1111 22.1111 -180 0 0 558.52
							 663.4 C679.23 542.7 679.23 346.33 558.52 225.62 A22.1111 22.1111 -180 0 0 542.89 219.15 ZM120.7 225.62
							 C0 346.33 0 542.7 120.7 663.4 A22.1111 22.1111 -180 0 0 152.01 663.4 A22.1111 22.1111 -180 0 0 152.01
							 632.13 C48.21 528.33 48.21 360.7 152.01 256.89 A22.1111 22.1111 -180 0 0 152.01 225.62 A22.1111 22.1111
							 -180 0 0 120.7 225.62 Z" class="st2"/>
			</g>
			<path d="M542.89 219.15 A22.1111 22.1111 -180 0 0 527.21 225.62 A22.1111 22.1111 -180 0 0 527.21 256.89 C631.02 360.7
						 631.02 528.33 527.21 632.13 A22.1111 22.1111 -180 0 0 527.21 663.4 A22.1111 22.1111 -180 0 0 558.52 663.4
						 C679.23 542.7 679.23 346.33 558.52 225.62 A22.1111 22.1111 -180 0 0 542.89 219.15 ZM120.7 225.62 C0 346.33
						 0 542.7 120.7 663.4 A22.1111 22.1111 -180 0 0 152.01 663.4 A22.1111 22.1111 -180 0 0 152.01 632.13 C48.21
						 528.33 48.21 360.7 152.01 256.89 A22.1111 22.1111 -180 0 0 152.01 225.62 A22.1111 22.1111 -180 0 0 120.7
						 225.62 Z" class="st5"/>
		</g>
	</g>
</svg>
