<?xml version="1.0" ?><svg height="36" id="svg6390" version="1.1" width="36" xmlns="http://www.w3.org/2000/svg" xmlns:cc="http://creativecommons.org/ns#" xmlns:dc="http://purl.org/dc/elements/1.1/" xmlns:inkscape="http://www.inkscape.org/namespaces/inkscape" xmlns:rdf="http://www.w3.org/1999/02/22-rdf-syntax-ns#" xmlns:sodipodi="http://sodipodi.sourceforge.net/DTD/sodipodi-0.dtd" xmlns:svg="http://www.w3.org/2000/svg"><defs id="defs6392"/><g id="layer1" transform="translate(0,-1016.3622)"><path d="m 17,1020.1122 0,2 2,0 0,-2 -2,0 z m 0.5,3 0,2.7246 1,0 0,-2.7246 -1,0 z m -1.5,3.5 0,6 4,0 0,-6 -4,0 z m -12.5,5 a 0.50004997,0.50004997 0 0 0 -0.5,0.5 l 0,2 0,1 0,2 a 0.50004997,0.50004997 0 0 0 0.5,0.5 l 10,0 a 0.50004997,0.50004997 0 0 0 0.5,-0.5 l 0,-2 1,0 0,-1 -1,0 0,-2 a 0.50004997,0.50004997 0 0 0 -0.5,-0.5 l -10,0 z m 19,0 a 0.50005,0.50005 0 0 0 -0.5,0.5 l 0,2 0,1 0,2 a 0.50005,0.50005 0 0 0 0.5,0.5 l 10,0 a 0.50005,0.50005 0 0 0 0.5,-0.5 l 0,-5 a 0.50005,0.50005 0 0 0 -0.5,-0.5 l -10,0 z m -18.5,1 1,0 0,1.5 -1,0 0,-1.5 z m 2,0 1,0 0,1.5 -1,0 0,-1.5 z m 2,0 1,0 0,1.5 -1,0 0,-1.5 z m 2,0 1,0 0,1.5 -1,0 0,-1.5 z m 2,0 1,0 0,1.5 -1,0 0,-1.5 z m 11,0 1,0 0,1.5 -1,0 0,-1.5 z m 2,0 1,0 0,1.5 -1,0 0,-1.5 z m 2,0 1,0 0,1.5 -1,0 0,-1.5 z m 2,0 1,0 0,1.5 -1,0 0,-1.5 z m 2,0 1,0 0,1.5 -1,0 0,-1.5 z m -15,1 0,5 4,0 0,-5 -4,0 z m -12,1.5 1,0 0,1.5 -1,0 0,-1.5 z m 2,0 1,0 0,1.5 -1,0 0,-1.5 z m 2,0 1,0 0,1.5 -1,0 0,-1.5 z m 2,0 1,0 0,1.5 -1,0 0,-1.5 z m 2,0 1,0 0,1.5 -1,0 0,-1.5 z m 11,0 1,0 0,1.5 -1,0 0,-1.5 z m 2,0 1,0 0,1.5 -1,0 0,-1.5 z m 2,0 1,0 0,1.5 -1,0 0,-1.5 z m 2,0 1,0 0,1.5 -1,0 0,-1.5 z m 2,0 1,0 0,1.5 -1,0 0,-1.5 z m -13.5,4.002 0,2.5 1,0 0,-2.5 -1,0 z m 0.5,3.498 c -1.6628,0 -3,1.3372 -3,3 0,1.6628 1.3372,3 3,3 1.6628,0 3,-1.3372 3,-3 0,-1.6628 -1.3372,-3 -3,-3 z m -9.5,1.1348 0,1.8652 0,1.8652 c 0.5038,-0.1361 0.9642,-0.4006 1.2324,-0.8652 0.3577,-0.6195 0.3577,-1.3805 0,-2 -0.2682,-0.4646 -0.7286,-0.7291 -1.2324,-0.8652 z m 19,0 c -0.5038,0.1361 -0.9642,0.4006 -1.2324,0.8652 -0.3577,0.6195 -0.3577,1.3805 0,2 0.2682,0.4646 0.7286,0.7291 1.2324,0.8652 l 0,-1.8652 0,-1.8652 z m -17,1.3652 0,1 3.5,0 0,-1 -3.5,0 z m 11.5,0 0,1 3.5,0 0,-1 -3.5,0 z" id="rect6415" style="font-size:medium;font-style:normal;font-variant:normal;font-weight:normal;font-stretch:normal;text-indent:0;text-align:start;text-decoration:none;line-height:normal;letter-spacing:normal;word-spacing:normal;text-transform:none;direction:ltr;block-progression:tb;writing-mode:lr-tb;text-anchor:start;baseline-shift:baseline;color:#000000;fill:#000000;fill-opacity:1;fill-rule:nonzero;stroke:none;visibility:visible;display:inline;overflow:visible;enable-background:accumulate;font-family:sans-serif"/></g></svg>