<svg xmlns="http://www.w3.org/2000/svg" viewBox="0 0 10950.2 4957.6"><defs><style>.cls-1{fill:#ef7d00;}.cls-2{fill:#009640;}.cls-3{fill:#fff;}</style></defs><g id="Calque_2" data-name="Calque 2"><g id="Calque_1-2" data-name="Calque 1"><rect class="cls-1" width="5469.63" height="4957.6"/><rect class="cls-2" x="5469.63" width="5480.57" height="4957.6"/><polygon class="cls-3" points="6415.78 528.21 10357.44 528.21 9668.35 1444.38 7441.6 1444.38 7441.6 2023.7 10343.94 2023.7 9682.08 2940.46 7441.6 2940.46 7441.6 3506.53 10357.44 3506.53 9695.46 4435.83 6415.78 4435.83 6415.78 528.21"/><polygon class="cls-3" points="6084.48 649.61 4862.94 1348.18 4862.94 4433.08 6084.48 4433.08 6084.48 649.61"/><polygon class="cls-3" points="4862.94 525.89 4862.94 1194.61 6071.62 525.89 4862.94 525.89"/><path class="cls-3" d="M3491.24,2153V1683.58a137.45,137.45,0,0,0-137.45-137.45h-1586a137.45,137.45,0,0,0-137.44,137.45v1583a137.21,137.21,0,0,0,137.21,137.21h1469c168.3,0,252.09-67.44,252.09-256.38l-1-69.23h.27l1028.51-544.75V4165.6c0,144.68-117.29,262-262,262H868.23c-145.27,0-263-117.77-263-263V785.08c0-144.81,117.39-262.2,262.2-262.2H4253.88c145,0,262.56,117.55,262.56,262.56V1600L3490.36,2153Z"/></g></g></svg>