<svg id="Layer_3" enable-background="new 0 0 64 64" height="512" viewBox="0 0 64 64" width="512" xmlns="http://www.w3.org/2000/svg"><g><path d="m62 24h-9v-1c0-.552-.447-1-1-1h-7v-2h10c1.654 0 3-1.346 3-3v-2.295c2.888-.863 5-3.541 5-6.705 0-3.86-3.141-7-7-7s-7 3.14-7 7c0 2.785 1.639 5.189 4 6.315v.685h-10c-1.654 0-3 1.346-3 3v4h-4v-1h2v-2h-2v-2h2v-2h-2v-2h2v-2h-2v-3c0-.552-.447-1-1-1v-1c0-1.302-.839-2.402-2-2.816v-2.184h-2v2.184c-1.161.414-2 1.514-2 2.816v1c-.553 0-1 .448-1 1v3h-2v2h2v2h-2v2h2v2h-2v2h2v1h-6v-1h2v-2h-2v-2h2v-2h-2v-2h2v-2h-2v-3c0-.552-.447-1-1-1v-1c0-1.302-.839-2.402-2-2.816v-2.184h-2v2.184c-1.161.414-2 1.514-2 2.816v1c-.553 0-1 .448-1 1v3h-2v2h2v2h-2v2h2v2h-2v2h2v1h-2c-.553 0-1 .448-1 1v1h-9c-.553 0-1 .448-1 1v4c0 .552.447 1 1 1h1v20h-1c-.553 0-1 .448-1 1v4c0 .552.447 1 1 1h9v1c0 .552.447 1 1 1h1v4c0 .552.447 1 1 1h3c.553 0 1-.448 1-1v-1h2v1c0 .552.447 1 1 1h3c.553 0 1-.448 1-1v-4h14v4c0 .552.447 1 1 1h3c.553 0 1-.448 1-1v-1h2v1c0 .552.447 1 1 1h3c.553 0 1-.448 1-1v-4h1c.553 0 1-.448 1-1v-1h9c.553 0 1-.448 1-1v-4c0-.552-.447-1-1-1h-1v-20h1c.553 0 1-.448 1-1v-4c0-.552-.447-1-1-1zm-59 30v-2h1c.553 0 1-.448 1-1v-22c0-.552-.447-1-1-1h-1v-2h8v28zm48-46c0-2.757 2.243-5 5-5s5 2.243 5 5-2.243 5-5 5-5-2.243-5-5zm-9 10c0-.551.448-1 1-1h11c.553 0 1-.448 1-1v-1.08c.328.047.66.08 1 .08v2c0 .551-.448 1-1 1h-11c-.553 0-1 .448-1 1v3h-1zm-11-12c0-.551.448-1 1-1s1 .449 1 1v1h-2zm-1 3h4v2h-4zm0 4h4v2h-4zm0 4h4v2h-4zm0 4h4v1h-4zm-13-15c0-.551.448-1 1-1s1 .449 1 1v1h-2zm-1 3h4v2h-4zm0 4h4v2h-4zm0 4h4v2h-4zm0 4h4v1h-4zm7 40h-1v-1c0-.552-.447-1-1-1h-4c-.553 0-1 .448-1 1v1h-1v-3h8zm26 0h-1v-1c0-.552-.447-1-1-1h-4c-.553 0-1 .448-1 1v1h-1v-3h8zm2-5h-38v-32h38zm10-28h-1c-.553 0-1 .448-1 1v22c0 .552.447 1 1 1h1v2h-8v-28h8z"/><path d="m16 54h32c.553 0 1-.448 1-1v-26c0-.552-.447-1-1-1h-32c-.553 0-1 .448-1 1v26c0 .552.447 1 1 1zm23-2h-2v-24h2zm2-24h2v24h-2zm-6 24h-2v-24h2zm-4 0h-2v-24h2zm-4 0h-2v-24h2zm-4 0h-2v-24h2zm24 0h-2v-24h2zm-30-24h2v24h-2z"/><path d="m55 4h2v8h-2z"/></g></svg>